<svg id="svg" version="1.1" xmlns="http://www.w3.org/2000/svg" xmlns:xlink="http://www.w3.org/1999/xlink" width="400" height="353.92609699769054" viewBox="0, 0, 400,353.92609699769054"><g id="svgg"><path id="path0" d="M397.500 64.754 C 396.996 64.882,396.208 65.068,395.750 65.167 C 393.665 65.618,392.897 65.903,389.917 67.331 C 387.805 68.342,385.894 69.247,383.625 70.311 C 382.869 70.666,381.688 71.221,381.000 71.544 C 380.313 71.867,379.075 72.448,378.250 72.834 C 377.425 73.221,375.925 73.933,374.917 74.416 C 373.908 74.899,372.333 75.648,371.417 76.082 C 366.419 78.445,360.598 81.451,356.240 83.919 C 355.409 84.389,354.622 84.825,354.490 84.888 C 354.358 84.951,353.950 85.191,353.583 85.421 C 353.217 85.652,352.804 85.891,352.667 85.953 C 352.529 86.016,352.342 86.135,352.250 86.220 C 352.158 86.304,351.435 86.758,350.642 87.228 C 347.478 89.105,346.748 89.562,346.694 89.695 C 346.664 89.771,346.578 89.833,346.503 89.833 C 346.428 89.833,345.891 90.135,345.308 90.505 C 344.726 90.874,344.119 91.220,343.958 91.274 C 343.798 91.328,343.667 91.438,343.667 91.519 C 343.667 91.600,343.580 91.667,343.474 91.667 C 343.368 91.667,343.036 91.854,342.735 92.083 C 342.435 92.312,342.141 92.500,342.083 92.500 C 342.024 92.500,341.650 92.725,341.250 93.000 C 340.850 93.275,340.469 93.500,340.402 93.500 C 340.336 93.500,340.036 93.687,339.735 93.917 C 339.435 94.146,339.109 94.333,339.011 94.333 C 338.913 94.333,338.833 94.408,338.833 94.500 C 338.833 94.592,338.759 94.667,338.668 94.667 C 338.578 94.667,337.977 95.004,337.333 95.417 C 336.690 95.829,336.132 96.167,336.094 96.167 C 336.018 96.167,331.184 99.190,330.465 99.688 C 330.217 99.859,329.935 100.000,329.840 100.000 C 329.745 100.000,329.666 100.056,329.666 100.125 C 329.666 100.194,329.253 100.472,328.749 100.744 C 328.246 101.016,327.833 101.297,327.833 101.369 C 327.833 101.441,327.766 101.500,327.683 101.500 C 327.601 101.500,327.057 101.799,326.475 102.164 C 325.035 103.067,323.189 104.214,322.849 104.417 C 322.332 104.725,320.752 105.744,320.583 105.877 C 320.492 105.949,319.142 106.815,317.583 107.800 C 313.110 110.629,311.421 111.734,311.361 111.872 C 311.331 111.942,311.234 112.000,311.146 112.000 C 311.058 112.000,310.333 112.435,309.535 112.968 C 308.736 113.500,307.596 114.251,307.000 114.636 C 306.404 115.022,305.804 115.412,305.667 115.504 C 305.529 115.595,304.517 116.270,303.417 117.004 C 302.317 117.737,301.275 118.430,301.102 118.543 C 300.929 118.657,300.348 119.069,299.810 119.458 C 299.272 119.848,298.798 120.167,298.756 120.167 C 298.696 120.167,294.216 123.252,288.250 127.402 C 287.975 127.593,287.712 127.791,287.667 127.842 C 287.621 127.893,286.908 128.413,286.083 128.999 C 283.954 130.512,275.176 137.016,274.727 137.415 C 274.623 137.508,274.173 137.863,273.727 138.204 C 271.564 139.863,269.575 141.412,269.500 141.497 C 269.454 141.549,269.079 141.850,268.667 142.165 C 268.254 142.480,267.767 142.869,267.583 143.029 C 267.400 143.189,266.537 143.892,265.667 144.591 C 264.796 145.289,263.933 145.986,263.749 146.139 C 262.458 147.210,261.404 148.097,261.333 148.172 C 261.287 148.221,260.875 148.555,260.417 148.914 C 259.958 149.273,259.508 149.645,259.417 149.741 C 259.325 149.838,258.725 150.366,258.083 150.916 C 257.442 151.465,256.830 151.990,256.724 152.083 C 256.619 152.175,256.171 152.550,255.730 152.917 C 254.584 153.869,250.153 157.753,249.170 158.667 C 249.022 158.804,248.567 159.211,248.159 159.572 C 247.074 160.529,244.514 162.838,243.895 163.417 C 243.601 163.692,242.511 164.703,241.472 165.664 C 233.478 173.062,220.499 186.008,212.408 194.655 C 211.771 195.335,211.025 196.123,210.750 196.405 C 210.474 196.686,209.426 197.817,208.420 198.917 C 207.414 200.017,206.439 201.079,206.253 201.276 C 205.179 202.424,204.405 203.268,202.994 204.833 C 202.127 205.796,201.379 206.621,201.333 206.667 C 201.287 206.713,200.688 207.387,200.000 208.167 C 199.313 208.946,198.407 209.958,197.986 210.417 C 197.565 210.875,196.890 211.625,196.485 212.083 C 196.081 212.542,195.637 213.029,195.499 213.167 C 195.361 213.304,194.761 213.979,194.165 214.666 C 193.570 215.354,193.008 216.000,192.917 216.102 C 192.825 216.204,192.338 216.766,191.833 217.352 C 191.021 218.295,189.561 219.939,189.333 220.167 C 189.287 220.213,188.764 220.813,188.170 221.500 C 187.576 222.188,187.051 222.787,187.003 222.833 C 186.956 222.879,186.396 223.517,185.761 224.250 C 185.125 224.983,184.525 225.658,184.427 225.750 C 184.226 225.939,179.903 230.872,179.407 231.479 C 179.229 231.696,178.962 231.996,178.814 232.145 C 178.665 232.295,178.183 232.867,177.742 233.417 C 177.302 233.967,176.897 234.454,176.844 234.500 C 176.721 234.607,176.056 235.472,174.552 237.482 C 171.850 241.095,171.358 243.464,172.741 246.208 C 173.495 247.703,173.614 247.746,174.357 246.792 C 174.660 246.402,174.948 246.046,174.997 246.000 C 175.045 245.954,175.309 245.617,175.581 245.250 C 175.854 244.883,176.169 244.471,176.281 244.333 C 176.707 243.809,178.297 241.811,179.415 240.393 C 180.056 239.581,180.619 238.879,180.666 238.833 C 180.713 238.787,181.200 238.188,181.748 237.500 C 182.833 236.139,183.303 235.573,183.625 235.240 C 183.740 235.121,183.833 234.971,183.833 234.906 C 183.833 234.842,183.965 234.668,184.126 234.520 C 184.286 234.371,184.715 233.875,185.078 233.417 C 185.442 232.958,185.781 232.546,185.833 232.500 C 185.885 232.454,186.225 232.042,186.589 231.583 C 186.953 231.125,187.296 230.713,187.351 230.667 C 187.407 230.621,187.853 230.096,188.342 229.500 C 188.832 228.904,189.275 228.379,189.328 228.333 C 189.380 228.287,189.947 227.612,190.586 226.833 C 191.226 226.054,191.947 225.192,192.187 224.917 C 193.769 223.109,195.357 221.271,196.000 220.505 C 196.713 219.656,197.583 218.665,198.500 217.657 C 198.729 217.406,199.132 216.948,199.395 216.641 C 199.658 216.334,200.183 215.739,200.561 215.318 C 200.940 214.896,201.737 214.005,202.333 213.336 C 203.701 211.801,204.218 211.230,204.898 210.500 C 205.197 210.179,205.880 209.429,206.416 208.833 C 207.746 207.355,210.502 204.361,211.917 202.858 C 212.558 202.176,213.408 201.273,213.804 200.851 C 221.342 192.830,234.762 179.521,242.333 172.558 C 242.929 172.010,243.685 171.304,244.013 170.989 C 244.341 170.674,244.941 170.125,245.347 169.770 C 245.752 169.414,246.796 168.470,247.667 167.672 C 248.537 166.874,249.925 165.629,250.750 164.905 C 251.575 164.182,252.287 163.550,252.333 163.502 C 252.379 163.453,253.017 162.891,253.750 162.253 C 254.483 161.615,255.458 160.753,255.917 160.338 C 256.375 159.923,257.193 159.208,257.734 158.750 C 258.275 158.292,258.800 157.842,258.900 157.750 C 259.001 157.658,259.571 157.171,260.167 156.668 C 260.762 156.164,261.287 155.710,261.333 155.658 C 261.379 155.606,262.392 154.749,263.583 153.754 C 264.775 152.760,266.017 151.714,266.342 151.431 C 266.668 151.148,267.268 150.644,267.676 150.311 C 268.083 149.978,268.754 149.430,269.167 149.093 C 269.579 148.755,270.046 148.374,270.205 148.245 C 270.363 148.115,271.344 147.314,272.385 146.463 C 273.426 145.613,274.568 144.692,274.922 144.417 C 275.276 144.142,276.058 143.519,276.658 143.034 C 278.158 141.821,278.062 141.897,279.833 140.508 C 280.704 139.825,281.497 139.188,281.595 139.091 C 281.694 138.995,282.049 138.729,282.386 138.500 C 282.722 138.271,282.998 138.027,282.999 137.958 C 282.999 137.890,283.074 137.833,283.165 137.833 C 283.316 137.833,283.871 137.412,284.427 136.875 C 284.546 136.760,284.723 136.667,284.821 136.667 C 284.920 136.667,285.000 136.608,285.000 136.536 C 285.000 136.464,285.206 136.282,285.458 136.132 C 285.710 135.982,286.067 135.720,286.250 135.550 C 286.590 135.234,294.340 129.429,296.000 128.247 C 296.504 127.888,296.954 127.551,297.000 127.497 C 297.046 127.444,297.710 126.954,298.476 126.409 C 299.241 125.863,300.076 125.267,300.329 125.083 C 300.583 124.900,301.944 123.942,303.354 122.954 C 304.763 121.967,306.035 121.060,306.179 120.940 C 306.323 120.819,306.680 120.579,306.971 120.407 C 307.262 120.236,307.500 120.041,307.500 119.975 C 307.500 119.910,307.637 119.812,307.804 119.759 C 307.971 119.706,308.252 119.530,308.429 119.368 C 308.606 119.206,309.050 118.890,309.417 118.668 C 309.783 118.445,310.174 118.185,310.286 118.090 C 310.863 117.597,310.994 117.500,311.083 117.500 C 311.174 117.500,312.151 116.849,312.333 116.667 C 312.379 116.621,313.092 116.131,313.917 115.578 C 314.742 115.025,316.204 114.042,317.167 113.393 C 318.910 112.219,321.448 110.554,325.250 108.091 C 326.350 107.379,327.662 106.525,328.167 106.193 C 328.671 105.862,329.233 105.507,329.417 105.405 C 329.600 105.302,330.819 104.532,332.126 103.693 C 333.434 102.853,334.537 102.167,334.580 102.167 C 334.622 102.167,335.165 101.838,335.786 101.436 C 336.838 100.756,340.781 98.332,341.917 97.669 C 342.192 97.508,343.204 96.907,344.167 96.333 C 345.129 95.760,346.142 95.159,346.417 94.998 C 346.692 94.837,347.957 94.097,349.228 93.353 C 350.499 92.609,351.599 92.000,351.673 92.000 C 351.746 92.000,351.831 91.944,351.861 91.875 C 351.892 91.806,352.193 91.600,352.531 91.417 C 352.869 91.233,354.594 90.264,356.364 89.263 C 360.505 86.921,360.226 87.077,363.879 85.060 C 365.600 84.111,367.033 83.333,367.062 83.333 C 367.092 83.333,367.784 82.972,368.600 82.529 C 370.555 81.469,372.778 80.284,375.333 78.939 C 377.677 77.706,393.227 69.946,395.667 68.792 C 396.537 68.380,397.869 67.752,398.625 67.397 C 399.381 67.041,400.000 66.651,400.000 66.529 C 400.000 66.302,398.656 64.491,398.502 64.511 C 398.455 64.517,398.004 64.626,397.500 64.754 M352.250 67.531 C 349.844 67.968,350.125 67.843,341.000 72.541 C 332.377 76.980,329.528 78.460,328.250 79.163 C 327.792 79.415,326.442 80.130,325.250 80.751 C 324.058 81.371,323.008 81.933,322.917 81.998 C 322.825 82.063,322.188 82.418,321.500 82.787 C 320.813 83.155,319.950 83.627,319.583 83.834 C 319.217 84.042,318.504 84.436,318.000 84.709 C 315.532 86.049,314.869 86.420,314.295 86.778 C 313.953 86.992,313.641 87.167,313.601 87.167 C 313.561 87.167,312.799 87.579,311.909 88.083 C 311.019 88.587,310.269 89.000,310.242 89.000 C 310.216 89.000,309.644 89.324,308.972 89.719 C 308.300 90.115,307.637 90.490,307.500 90.554 C 307.362 90.617,307.025 90.806,306.750 90.972 C 306.475 91.139,305.725 91.561,305.083 91.911 C 304.442 92.260,303.879 92.592,303.833 92.648 C 303.787 92.704,303.394 92.929,302.959 93.148 C 302.524 93.367,301.776 93.798,301.298 94.106 C 300.819 94.414,300.371 94.667,300.301 94.667 C 300.230 94.667,299.778 94.917,299.295 95.223 C 298.812 95.529,298.004 96.005,297.500 96.280 C 296.088 97.051,292.937 98.849,292.750 98.991 C 292.658 99.060,291.908 99.478,291.083 99.919 C 290.258 100.360,289.358 100.857,289.083 101.024 C 288.808 101.190,288.133 101.568,287.583 101.865 C 287.033 102.161,286.433 102.495,286.250 102.606 C 286.067 102.718,285.654 102.942,285.333 103.104 C 285.012 103.266,284.712 103.441,284.667 103.491 C 284.621 103.542,284.321 103.716,284.000 103.879 C 282.926 104.423,280.752 105.629,280.583 105.774 C 280.492 105.853,280.042 106.104,279.583 106.332 C 279.125 106.561,278.204 107.067,277.537 107.457 C 276.870 107.847,276.287 108.167,276.242 108.167 C 276.197 108.167,275.865 108.353,275.505 108.580 C 275.144 108.808,274.377 109.247,273.800 109.557 C 271.749 110.657,270.743 111.226,270.170 111.611 C 269.850 111.825,269.494 112.000,269.378 112.000 C 269.262 112.000,269.167 112.057,269.167 112.126 C 269.167 112.195,268.923 112.357,268.625 112.485 C 268.327 112.614,267.896 112.847,267.667 113.004 C 267.438 113.160,266.725 113.572,266.083 113.918 C 265.442 114.264,264.798 114.649,264.654 114.774 C 264.509 114.898,264.341 115.000,264.280 115.000 C 264.219 115.000,262.950 115.730,261.459 116.622 C 259.969 117.515,258.558 118.358,258.322 118.497 C 258.087 118.636,257.161 119.200,256.265 119.750 C 255.368 120.300,254.211 121.006,253.693 121.319 C 253.174 121.632,252.713 121.940,252.667 122.003 C 252.621 122.065,252.396 122.215,252.167 122.335 C 250.614 123.149,237.649 131.944,237.167 132.511 C 237.121 132.564,236.630 132.914,236.077 133.287 C 235.523 133.660,234.970 134.085,234.848 134.232 C 234.726 134.380,234.529 134.500,234.410 134.500 C 234.292 134.500,234.169 134.560,234.139 134.634 C 234.108 134.707,233.558 135.137,232.917 135.588 C 232.275 136.040,231.651 136.505,231.529 136.622 C 231.408 136.739,230.958 137.073,230.529 137.365 C 230.101 137.656,229.713 137.940,229.667 137.995 C 229.621 138.051,228.646 138.801,227.500 139.663 C 226.354 140.526,224.842 141.685,224.140 142.240 C 223.437 142.796,221.946 143.962,220.826 144.833 C 219.706 145.704,218.706 146.492,218.603 146.583 C 218.501 146.675,218.117 146.974,217.750 147.247 C 217.030 147.784,216.573 148.149,216.273 148.425 C 216.169 148.521,215.371 149.158,214.500 149.841 C 213.629 150.524,212.767 151.208,212.583 151.361 C 212.400 151.514,211.537 152.212,210.667 152.913 C 209.796 153.614,208.933 154.312,208.750 154.465 C 208.567 154.618,208.079 155.000,207.667 155.314 C 207.254 155.629,206.879 155.930,206.833 155.985 C 206.787 156.039,205.963 156.713,205.000 157.483 C 204.037 158.253,203.175 158.966,203.083 159.067 C 202.992 159.167,202.619 159.472,202.256 159.744 C 201.893 160.016,201.478 160.353,201.335 160.494 C 201.192 160.635,200.683 161.047,200.204 161.409 C 199.725 161.772,199.333 162.128,199.333 162.201 C 199.333 162.274,199.227 162.333,199.097 162.333 C 198.967 162.333,198.836 162.391,198.806 162.461 C 198.775 162.532,198.375 162.888,197.917 163.253 C 197.458 163.618,197.046 163.957,197.000 164.006 C 196.954 164.055,196.542 164.392,196.083 164.756 C 195.625 165.119,195.213 165.458,195.167 165.509 C 195.121 165.560,194.521 166.043,193.833 166.583 C 193.146 167.124,192.546 167.607,192.500 167.659 C 192.454 167.710,191.779 168.262,191.000 168.886 C 190.221 169.510,189.321 170.231,189.000 170.488 C 188.679 170.745,187.742 171.492,186.917 172.150 C 186.092 172.807,185.085 173.623,184.681 173.964 C 184.276 174.305,183.788 174.691,183.597 174.824 C 183.406 174.956,183.213 175.113,183.167 175.172 C 183.121 175.231,182.521 175.757,181.833 176.340 C 180.449 177.514,180.275 177.678,177.219 180.685 C 175.280 182.594,170.787 187.255,168.250 189.990 C 167.700 190.583,167.023 191.297,166.746 191.576 C 166.469 191.855,165.236 193.171,164.007 194.500 C 162.777 195.829,161.654 197.035,161.510 197.181 C 161.178 197.517,157.490 201.470,156.500 202.550 C 156.087 203.001,155.450 203.685,155.083 204.071 C 154.717 204.457,153.653 205.593,152.720 206.595 C 151.787 207.597,150.699 208.760,150.303 209.179 C 149.465 210.066,146.471 213.283,145.077 214.794 L 144.114 215.838 143.496 214.461 C 143.156 213.703,142.749 212.596,142.592 212.000 C 142.435 211.404,142.246 210.692,142.171 210.417 C 142.096 210.142,141.797 209.017,141.506 207.917 C 141.215 206.817,140.826 205.354,140.642 204.667 C 140.458 203.979,140.239 203.135,140.154 202.792 C 140.069 202.448,139.929 201.885,139.841 201.542 C 139.754 201.198,139.607 200.579,139.515 200.167 C 139.422 199.754,139.265 199.154,139.165 198.833 C 139.065 198.512,138.805 197.575,138.586 196.750 C 138.367 195.925,138.069 194.800,137.923 194.250 C 137.777 193.700,137.555 192.912,137.430 192.500 C 137.306 192.088,137.038 191.188,136.835 190.500 C 136.373 188.935,135.115 185.162,133.999 182.000 C 133.530 180.671,133.035 179.246,132.898 178.833 C 132.762 178.421,132.585 177.933,132.505 177.750 C 132.425 177.567,132.232 177.042,132.076 176.583 C 131.920 176.125,131.434 174.737,130.995 173.500 C 130.557 172.262,129.894 170.387,129.522 169.333 C 129.150 168.279,128.650 166.892,128.410 166.250 C 128.170 165.608,127.834 164.671,127.664 164.167 C 127.493 163.662,127.156 162.725,126.914 162.083 C 126.672 161.442,126.334 160.504,126.164 160.000 C 125.993 159.496,125.654 158.558,125.409 157.917 C 125.163 157.275,124.825 156.337,124.657 155.833 C 124.489 155.329,124.155 154.392,123.916 153.750 C 123.377 152.306,122.684 150.388,122.501 149.833 C 122.425 149.604,122.166 148.892,121.924 148.250 C 121.682 147.608,121.373 146.770,121.239 146.386 C 121.104 146.003,120.766 145.065,120.486 144.303 C 120.206 143.540,119.915 142.729,119.838 142.500 C 119.762 142.271,119.348 141.108,118.918 139.917 C 117.996 137.358,116.826 134.087,116.415 132.917 C 116.253 132.458,115.948 131.633,115.736 131.083 C 115.523 130.533,115.089 129.293,114.771 128.328 C 114.453 127.363,114.118 126.388,114.027 126.161 C 113.935 125.935,113.807 125.600,113.742 125.417 C 112.727 122.562,112.060 120.658,111.669 119.500 C 108.792 110.983,108.262 110.120,105.358 109.239 C 104.476 108.971,99.638 108.905,98.667 109.147 C 98.346 109.227,97.633 109.390,97.083 109.509 C 93.136 110.364,88.687 113.544,84.738 118.333 C 83.595 119.720,83.308 120.087,81.883 121.984 C 81.498 122.497,81.116 122.995,81.033 123.092 C 80.950 123.188,80.328 124.087,79.650 125.091 C 78.971 126.094,78.359 126.990,78.288 127.082 C 78.217 127.174,77.753 127.888,77.256 128.667 C 76.758 129.446,76.287 130.158,76.208 130.250 C 76.129 130.342,75.701 131.017,75.257 131.750 C 74.813 132.483,74.273 133.315,74.058 133.599 C 73.843 133.883,73.667 134.201,73.667 134.307 C 73.667 134.413,73.592 134.500,73.500 134.500 C 73.408 134.500,73.333 134.579,73.333 134.675 C 73.333 134.771,73.045 135.277,72.693 135.800 C 72.341 136.322,71.713 137.275,71.297 137.917 C 70.881 138.558,69.586 140.546,68.418 142.333 C 64.593 148.188,63.167 150.421,63.167 150.554 C 63.167 150.594,62.903 151.064,62.582 151.598 C 61.622 153.191,61.584 153.768,62.252 156.625 C 62.414 157.320,65.988 157.033,67.494 156.204 C 68.253 155.787,70.844 154.037,71.000 153.837 C 71.046 153.778,71.584 153.376,72.196 152.942 L 73.309 152.155 75.013 154.619 C 75.950 155.974,76.878 157.308,77.076 157.583 C 77.557 158.254,78.195 159.615,78.832 161.333 C 79.121 162.112,79.418 162.900,79.493 163.083 C 79.567 163.267,79.831 163.942,80.080 164.583 C 80.329 165.225,80.594 165.900,80.669 166.083 C 80.744 166.267,81.230 167.542,81.750 168.917 C 82.270 170.292,82.870 171.867,83.083 172.417 C 83.296 172.967,83.633 173.867,83.830 174.417 C 84.028 174.967,84.289 175.642,84.411 175.917 C 84.532 176.192,84.722 176.679,84.832 177.000 C 84.943 177.321,85.095 177.733,85.170 177.917 C 85.245 178.100,85.420 178.588,85.558 179.000 C 85.696 179.412,86.007 180.275,86.250 180.917 C 86.492 181.558,86.829 182.496,86.997 183.000 C 87.166 183.504,87.449 184.329,87.627 184.833 C 87.805 185.338,88.116 186.275,88.317 186.917 C 88.518 187.558,88.787 188.346,88.915 188.667 C 89.042 188.987,89.312 189.813,89.513 190.500 C 89.715 191.188,90.026 192.200,90.204 192.750 C 90.383 193.300,90.678 194.313,90.860 195.000 C 91.267 196.543,91.420 197.087,91.658 197.833 C 91.826 198.361,92.009 199.016,92.762 201.792 C 92.893 202.273,93.121 203.098,93.268 203.625 C 93.415 204.152,93.596 204.808,93.670 205.083 C 94.365 207.665,94.853 209.464,95.161 210.583 C 95.363 211.317,95.709 212.610,95.931 213.458 C 96.152 214.306,96.527 215.731,96.765 216.625 C 97.229 218.374,97.482 219.339,98.391 222.833 C 98.713 224.071,99.101 225.533,99.254 226.083 C 99.407 226.633,99.594 227.346,99.670 227.667 C 99.746 227.987,99.994 228.963,100.222 229.833 C 101.095 233.168,101.841 236.044,102.730 239.500 C 103.236 241.471,103.732 243.346,103.832 243.667 C 103.931 243.987,104.084 244.588,104.171 245.000 C 104.258 245.412,104.484 246.313,104.675 247.000 C 104.865 247.688,105.273 249.225,105.582 250.417 C 105.892 251.608,106.270 253.033,106.424 253.583 C 106.893 255.266,107.017 255.727,107.162 256.333 C 107.238 256.654,107.427 257.367,107.580 257.917 C 107.734 258.467,107.888 259.051,107.922 259.216 C 107.956 259.380,108.061 259.755,108.155 260.049 C 108.249 260.343,108.509 261.193,108.732 261.938 C 110.033 266.288,112.219 268.980,115.967 270.849 C 116.544 271.137,117.048 271.341,117.086 271.303 C 117.125 271.264,116.441 268.799,115.567 265.825 C 114.693 262.850,113.914 260.192,113.837 259.917 C 113.562 258.945,113.142 257.406,112.914 256.540 C 112.788 256.057,112.636 255.585,112.577 255.489 C 112.518 255.394,112.257 254.476,111.997 253.450 C 111.737 252.423,111.409 251.171,111.267 250.667 C 110.925 249.452,109.984 245.575,109.427 243.083 C 108.764 240.120,108.701 239.834,108.486 238.833 C 108.378 238.329,108.193 237.579,108.075 237.167 C 107.958 236.754,107.773 236.004,107.665 235.500 C 107.557 234.996,107.400 234.358,107.317 234.083 C 107.139 233.494,105.740 228.548,105.479 227.583 C 105.380 227.217,105.203 226.617,105.086 226.250 C 104.968 225.883,104.709 225.021,104.509 224.333 C 104.309 223.646,103.970 222.521,103.755 221.833 C 103.540 221.146,103.197 220.021,102.992 219.333 C 102.090 216.307,99.683 208.687,99.413 208.000 C 99.287 207.679,98.916 206.554,98.589 205.500 C 98.262 204.446,97.855 203.208,97.683 202.750 C 97.512 202.292,97.179 201.317,96.942 200.583 C 96.384 198.854,95.521 196.342,95.338 195.917 C 95.259 195.733,95.156 195.433,95.108 195.250 C 95.061 195.067,94.638 193.829,94.169 192.500 C 93.699 191.171,93.023 189.221,92.666 188.167 C 92.309 187.112,91.873 185.838,91.697 185.333 C 91.202 183.913,89.915 179.889,89.511 178.500 C 89.311 177.813,89.051 176.950,88.933 176.583 C 88.814 176.217,88.638 175.654,88.540 175.333 C 88.386 174.825,87.379 170.768,86.596 167.500 C 86.454 166.904,86.066 165.517,85.736 164.417 C 85.405 163.317,85.073 162.192,84.998 161.917 C 84.923 161.642,84.678 160.929,84.454 160.333 C 82.727 155.741,80.723 152.480,77.710 149.357 L 76.837 148.453 77.794 147.952 C 78.320 147.676,78.787 147.406,78.833 147.351 C 78.879 147.295,79.442 146.976,80.083 146.642 C 80.725 146.307,81.566 145.857,81.951 145.642 C 82.803 145.166,82.724 145.079,84.965 148.965 C 85.599 150.065,87.932 154.729,88.401 155.834 C 88.576 156.246,88.903 156.996,89.127 157.500 C 89.351 158.004,89.602 158.585,89.684 158.792 C 90.171 160.013,90.272 160.257,90.884 161.667 C 91.023 161.987,91.564 163.300,92.087 164.583 C 92.609 165.867,93.113 167.010,93.205 167.125 C 93.298 167.240,93.323 167.333,93.261 167.333 C 93.199 167.333,93.255 167.540,93.387 167.792 C 93.518 168.044,93.705 168.438,93.802 168.667 C 95.498 172.691,100.220 180.957,101.323 181.833 C 101.572 182.031,102.667 183.645,102.667 183.814 C 102.667 183.916,102.742 184.000,102.833 184.000 C 102.925 184.000,103.000 184.076,103.000 184.170 C 103.000 184.263,103.172 184.620,103.383 184.962 C 104.457 186.702,105.526 189.868,107.254 196.417 C 107.665 197.975,108.106 199.625,108.233 200.083 C 108.471 200.940,114.802 219.929,115.596 222.167 C 115.840 222.854,116.176 223.867,116.344 224.417 C 116.511 224.967,116.869 226.054,117.140 226.833 C 117.411 227.612,117.778 228.700,117.957 229.250 C 118.634 231.335,120.995 238.438,121.170 238.917 C 121.270 239.192,121.548 240.017,121.787 240.750 C 122.027 241.483,122.802 243.846,123.510 246.000 C 124.217 248.154,124.957 250.442,125.153 251.083 C 125.350 251.725,125.612 252.512,125.736 252.833 C 125.861 253.154,126.121 253.942,126.316 254.583 C 126.805 256.202,128.117 260.311,128.338 260.917 C 128.438 261.192,128.549 261.551,128.585 261.716 C 128.621 261.881,128.794 262.444,128.970 262.966 C 129.145 263.489,129.387 264.254,129.508 264.667 C 130.444 267.870,132.065 269.353,134.350 269.095 C 136.145 268.892,141.416 266.431,143.118 265.002 C 143.229 264.909,143.379 264.833,143.453 264.833 C 143.527 264.833,143.773 264.665,144.002 264.458 C 144.230 264.252,144.697 263.874,145.040 263.618 C 148.251 261.219,151.806 256.753,154.750 251.417 C 156.303 248.603,156.907 247.536,157.158 247.167 C 157.313 246.938,157.569 246.487,157.725 246.167 C 158.026 245.549,158.361 244.972,158.500 244.833 C 158.546 244.787,158.763 244.412,158.983 244.000 C 159.203 243.588,159.473 243.137,159.583 243.000 C 159.694 242.862,159.964 242.412,160.184 242.000 C 160.403 241.588,160.626 241.213,160.679 241.167 C 160.731 241.121,160.825 240.971,160.886 240.833 C 160.948 240.696,161.298 240.107,161.666 239.525 C 162.033 238.943,162.333 238.399,162.333 238.317 C 162.333 238.234,162.390 238.167,162.458 238.166 C 162.527 238.166,162.802 237.773,163.068 237.291 C 163.335 236.810,163.754 236.117,163.999 235.750 C 164.244 235.383,164.830 234.483,165.302 233.750 C 165.774 233.017,166.225 232.338,166.305 232.242 C 166.384 232.147,166.480 231.997,166.516 231.909 C 166.706 231.459,173.311 221.795,174.712 219.919 C 176.351 217.723,177.518 216.122,177.995 215.417 C 178.304 214.958,178.751 214.354,178.987 214.074 C 179.223 213.794,179.604 213.312,179.833 213.003 C 180.505 212.098,182.060 210.091,182.160 210.000 C 182.211 209.954,182.475 209.617,182.748 209.250 C 183.021 208.883,183.335 208.471,183.445 208.333 C 183.556 208.196,183.918 207.746,184.250 207.333 C 184.582 206.921,184.944 206.471,185.055 206.333 C 185.165 206.196,185.702 205.521,186.247 204.833 C 186.792 204.146,187.316 203.503,187.411 203.404 C 187.506 203.306,187.808 202.942,188.083 202.594 C 188.848 201.629,189.517 200.831,190.255 200.003 C 190.624 199.589,191.298 198.800,191.751 198.250 C 192.205 197.700,192.618 197.213,192.670 197.167 C 192.722 197.121,193.244 196.521,193.831 195.833 C 194.417 195.146,195.133 194.321,195.422 194.000 C 195.710 193.679,196.613 192.667,197.428 191.750 C 198.243 190.833,198.987 190.001,199.080 189.901 C 199.174 189.800,200.075 188.829,201.083 187.741 C 207.401 180.928,216.038 172.364,222.356 166.648 C 222.598 166.429,223.461 165.642,224.273 164.899 C 225.085 164.156,226.125 163.227,226.583 162.834 C 227.042 162.441,227.454 162.074,227.500 162.018 C 227.546 161.962,228.108 161.468,228.750 160.919 C 229.392 160.370,229.954 159.879,230.000 159.826 C 230.046 159.774,230.608 159.293,231.250 158.757 C 231.892 158.222,232.539 157.664,232.688 157.517 C 232.837 157.370,233.100 157.137,233.273 157.000 C 233.445 156.862,234.033 156.375,234.579 155.917 C 235.125 155.458,235.725 154.960,235.911 154.810 C 236.097 154.659,236.784 154.096,237.437 153.560 C 238.090 153.023,239.135 152.171,239.758 151.667 C 240.381 151.162,241.011 150.637,241.159 150.500 C 241.307 150.362,241.688 150.051,242.005 149.809 C 242.323 149.566,242.749 149.210,242.951 149.017 C 243.154 148.824,243.359 148.667,243.408 148.667 C 243.456 148.667,243.628 148.559,243.790 148.427 C 244.866 147.548,245.607 146.961,246.751 146.083 C 247.467 145.533,248.285 144.891,248.568 144.656 C 248.852 144.421,249.346 144.050,249.667 143.831 C 249.987 143.612,250.287 143.388,250.333 143.333 C 250.379 143.277,250.717 143.012,251.083 142.742 C 251.450 142.473,251.787 142.214,251.833 142.167 C 251.879 142.120,252.217 141.858,252.583 141.585 C 252.950 141.312,253.362 140.998,253.500 140.887 C 253.637 140.776,254.575 140.077,255.583 139.334 C 256.592 138.590,257.604 137.841,257.833 137.669 C 258.063 137.497,259.037 136.777,260.000 136.070 C 260.962 135.363,262.275 134.395,262.917 133.918 C 263.558 133.442,264.871 132.501,265.833 131.828 C 266.796 131.156,267.621 130.561,267.667 130.507 C 267.712 130.453,267.973 130.267,268.246 130.093 C 268.518 129.919,268.818 129.710,268.912 129.628 C 269.095 129.468,277.693 123.474,279.135 122.500 C 279.611 122.179,280.000 121.860,280.000 121.792 C 280.000 121.723,280.082 121.667,280.182 121.667 C 280.282 121.667,280.536 121.535,280.746 121.375 C 280.956 121.215,281.268 120.988,281.439 120.871 C 282.902 119.873,292.956 112.977,293.092 112.878 C 293.189 112.808,293.390 112.675,293.539 112.583 C 293.688 112.492,294.884 111.694,296.197 110.811 C 297.509 109.928,299.858 108.374,301.417 107.357 C 302.975 106.340,304.362 105.434,304.500 105.342 C 304.637 105.251,305.237 104.864,305.833 104.484 C 307.498 103.421,309.060 102.414,310.294 101.609 C 310.912 101.206,311.904 100.569,312.500 100.194 C 313.096 99.819,313.674 99.434,313.785 99.339 C 313.895 99.244,314.033 99.167,314.091 99.167 C 314.148 99.167,314.508 98.953,314.889 98.692 C 315.271 98.430,316.108 97.887,316.750 97.484 C 317.392 97.081,317.942 96.695,317.972 96.626 C 318.003 96.557,318.093 96.500,318.174 96.500 C 318.363 96.500,322.066 94.129,322.139 93.961 C 322.169 93.891,322.264 93.833,322.350 93.833 C 322.435 93.833,323.348 93.295,324.378 92.638 C 325.407 91.980,326.700 91.156,327.250 90.805 C 327.800 90.455,328.325 90.112,328.417 90.042 C 328.820 89.738,330.503 88.667,330.578 88.667 C 330.661 88.667,332.678 87.357,333.944 86.481 C 334.326 86.216,334.688 86.000,334.748 86.000 C 334.809 86.000,335.397 85.638,336.054 85.196 C 337.553 84.188,339.664 82.803,340.038 82.583 C 340.644 82.227,345.421 79.092,345.500 78.999 C 345.546 78.945,345.939 78.695,346.373 78.444 C 347.192 77.971,349.891 75.416,350.803 74.250 C 351.090 73.883,352.020 72.697,352.871 71.614 C 355.154 68.704,355.051 68.985,354.172 68.088 C 353.764 67.673,353.352 67.344,353.257 67.356 C 353.161 67.369,352.708 67.447,352.250 67.531 " stroke="none" fill="#64dcfc" fill-rule="evenodd"></path><path id="path1" d="M161.750 0.196 C 158.644 0.441,151.339 1.471,148.333 2.087 C 147.737 2.209,146.800 2.390,146.250 2.489 C 144.634 2.778,141.132 3.482,140.500 3.644 C 140.179 3.726,139.467 3.888,138.917 4.005 C 138.367 4.121,136.754 4.514,135.333 4.878 C 133.912 5.241,132.487 5.600,132.167 5.675 C 131.527 5.824,130.855 6.009,129.583 6.384 C 129.125 6.519,128.300 6.752,127.750 6.902 C 126.667 7.196,122.632 8.461,120.750 9.096 C 118.283 9.929,116.570 10.524,116.250 10.660 C 116.067 10.737,115.429 10.988,114.833 11.217 C 113.867 11.588,110.282 12.988,109.417 13.333 C 109.233 13.406,108.650 13.661,108.120 13.899 C 107.591 14.138,107.124 14.333,107.084 14.333 C 107.016 14.333,106.531 14.545,104.333 15.533 C 103.921 15.719,101.708 16.797,99.417 17.930 C 95.542 19.845,94.219 20.534,92.083 21.745 C 91.625 22.006,91.100 22.303,90.917 22.406 C 90.733 22.510,89.963 22.967,89.204 23.422 C 88.445 23.877,87.692 24.325,87.531 24.417 C 87.168 24.622,85.478 25.699,85.250 25.870 C 85.158 25.938,84.146 26.614,83.000 27.372 C 81.854 28.130,80.879 28.789,80.833 28.837 C 80.787 28.885,79.850 29.554,78.750 30.323 C 77.650 31.093,76.712 31.770,76.667 31.828 C 76.621 31.885,76.321 32.113,76.000 32.333 C 75.679 32.554,75.154 32.944,74.833 33.200 C 74.512 33.456,73.762 34.047,73.167 34.513 C 70.990 36.218,67.752 38.873,67.312 39.312 C 67.163 39.461,66.863 39.726,66.645 39.900 C 65.981 40.433,64.094 42.049,63.916 42.239 C 63.824 42.336,63.374 42.748,62.916 43.153 C 57.016 48.372,48.432 56.954,44.814 61.250 C 44.505 61.617,44.136 62.029,43.993 62.167 C 43.850 62.304,43.332 62.904,42.843 63.500 C 42.353 64.096,41.904 64.621,41.846 64.667 C 41.787 64.712,41.441 65.125,41.078 65.583 C 40.714 66.042,40.377 66.454,40.328 66.500 C 40.252 66.571,39.662 67.301,38.667 68.555 C 38.529 68.729,38.342 68.956,38.250 69.060 C 38.158 69.165,37.860 69.550,37.586 69.917 C 37.313 70.283,36.997 70.696,36.884 70.833 C 36.579 71.204,35.747 72.315,35.136 73.167 C 34.839 73.579,34.463 74.062,34.299 74.240 C 34.134 74.417,34.000 74.618,34.000 74.686 C 34.000 74.754,33.901 74.909,33.779 75.031 C 33.457 75.352,29.394 81.267,28.417 82.836 C 27.958 83.572,27.503 84.267,27.406 84.379 C 27.234 84.577,26.641 85.542,24.939 88.392 C 24.167 89.684,23.043 91.665,21.946 93.667 C 21.670 94.171,21.135 95.146,20.757 95.833 C 19.815 97.546,17.175 102.949,15.691 106.201 C 15.061 107.580,11.995 115.060,11.501 116.420 C 10.512 119.147,10.321 119.669,9.918 120.750 C 9.678 121.392,9.194 122.779,8.841 123.833 C 8.488 124.888,8.121 125.938,8.025 126.167 C 7.929 126.396,7.614 127.371,7.324 128.333 C 7.034 129.296,6.661 130.496,6.495 131.000 C 6.204 131.882,5.622 133.950,5.324 135.167 C 5.245 135.487,4.987 136.462,4.750 137.333 C 4.513 138.204,4.244 139.254,4.150 139.667 C 4.057 140.079,3.913 140.717,3.830 141.083 C 3.362 143.163,2.693 146.415,2.510 147.500 C 2.395 148.188,2.202 149.275,2.082 149.917 C 1.610 152.433,1.236 155.803,0.594 163.333 C 0.106 169.048,-0.003 172.193,-0.002 180.500 C -0.001 188.813,0.102 191.615,0.594 196.667 C 1.214 203.034,1.532 205.604,2.100 208.833 C 2.237 209.612,2.426 210.700,2.521 211.250 C 3.083 214.535,4.442 220.826,5.076 223.083 C 5.205 223.542,5.475 224.554,5.675 225.333 C 6.068 226.857,6.257 227.537,6.583 228.583 C 6.697 228.950,6.886 229.588,7.003 230.000 C 7.263 230.918,9.289 237.028,10.013 239.076 C 10.613 240.774,13.407 247.763,14.064 249.208 C 16.000 253.467,16.458 254.435,17.943 257.417 C 18.719 258.975,19.780 261.053,20.302 262.034 C 20.823 263.015,21.539 264.365,21.891 265.034 C 22.244 265.703,22.627 266.362,22.743 266.500 C 22.858 266.637,23.236 267.275,23.582 267.917 C 23.928 268.558,24.351 269.282,24.522 269.526 C 24.693 269.769,24.833 270.008,24.833 270.056 C 24.833 270.200,27.003 273.675,28.594 276.077 C 29.138 276.899,29.621 277.651,29.667 277.749 C 30.005 278.471,34.688 284.954,37.250 288.246 C 38.167 289.424,39.210 290.770,39.569 291.236 C 39.928 291.702,40.307 292.158,40.411 292.250 C 40.515 292.342,40.894 292.792,41.253 293.250 C 41.612 293.708,41.946 294.121,41.997 294.167 C 42.047 294.212,42.537 294.775,43.086 295.417 C 45.698 298.471,51.007 303.906,54.249 306.845 C 54.798 307.343,55.360 307.863,55.499 308.001 C 55.637 308.139,56.313 308.739,57.000 309.334 C 57.688 309.929,58.288 310.454,58.333 310.500 C 58.417 310.583,60.142 312.029,60.721 312.500 C 60.890 312.637,61.228 312.924,61.472 313.137 C 61.717 313.350,62.179 313.724,62.500 313.969 C 62.821 314.214,63.121 314.454,63.167 314.503 C 63.212 314.551,63.962 315.151,64.833 315.837 C 65.704 316.522,66.442 317.139,66.472 317.208 C 66.503 317.277,66.597 317.333,66.681 317.333 C 66.765 317.333,66.972 317.465,67.142 317.625 C 67.712 318.165,68.169 318.500,68.335 318.500 C 68.426 318.500,68.501 318.556,68.501 318.625 C 68.502 318.694,68.778 318.938,69.114 319.167 C 69.451 319.396,69.806 319.662,69.905 319.757 C 70.003 319.853,70.608 320.301,71.250 320.754 C 71.892 321.207,72.442 321.635,72.472 321.705 C 72.503 321.776,72.628 321.833,72.750 321.833 C 72.872 321.833,72.997 321.898,73.028 321.978 C 73.058 322.057,73.871 322.673,74.833 323.345 C 75.796 324.018,76.621 324.612,76.667 324.666 C 76.803 324.828,83.981 329.549,85.333 330.367 C 87.374 331.602,89.881 333.064,90.417 333.333 C 90.692 333.471,91.104 333.708,91.333 333.861 C 91.741 334.132,96.591 336.693,97.250 336.985 C 97.433 337.066,98.558 337.595,99.750 338.160 C 100.942 338.726,102.067 339.251,102.250 339.326 C 102.433 339.402,103.033 339.670,103.583 339.920 C 104.133 340.171,104.733 340.434,104.917 340.505 C 105.100 340.576,105.605 340.791,106.039 340.983 C 106.474 341.176,107.336 341.527,107.956 341.764 C 108.576 342.002,109.643 342.422,110.327 342.698 C 111.012 342.974,112.212 343.414,112.994 343.677 C 113.776 343.939,115.054 344.371,115.833 344.637 C 117.775 345.300,120.876 346.271,122.083 346.594 C 123.457 346.962,123.869 347.081,125.500 347.579 C 126.279 347.817,127.479 348.167,128.167 348.358 C 128.854 348.549,129.792 348.813,130.250 348.946 C 132.431 349.580,137.246 350.790,139.750 351.335 C 140.117 351.415,140.904 351.592,141.500 351.728 C 142.096 351.865,143.033 352.060,143.583 352.163 C 144.133 352.265,144.921 352.416,145.333 352.497 C 145.746 352.578,146.721 352.731,147.500 352.837 C 148.279 352.942,149.592 353.131,150.417 353.255 C 154.717 353.902,161.702 353.979,174.583 353.521 C 178.598 353.379,180.410 353.285,188.083 352.826 C 192.241 352.578,197.438 352.096,199.750 351.746 C 200.575 351.621,201.850 351.436,202.583 351.334 C 205.030 350.995,206.970 350.628,208.333 350.246 C 208.746 350.131,209.721 349.869,210.500 349.665 C 211.279 349.462,212.329 349.148,212.833 348.967 C 213.338 348.787,213.975 348.580,214.250 348.507 C 215.079 348.286,221.676 345.953,222.250 345.677 C 222.433 345.589,222.921 345.405,223.333 345.269 C 223.746 345.132,224.833 344.747,225.750 344.413 C 226.667 344.079,227.792 343.689,228.250 343.548 C 228.708 343.406,229.608 343.124,230.250 342.920 C 232.025 342.357,232.400 342.258,236.583 341.240 C 239.058 340.638,240.242 340.283,242.667 339.417 C 243.915 338.971,244.575 338.689,247.082 337.531 C 249.085 336.606,253.722 334.121,254.180 333.727 C 254.325 333.602,254.488 333.500,254.543 333.500 C 254.598 333.500,255.267 333.111,256.030 332.637 C 256.793 332.162,258.017 331.400,258.750 330.943 C 259.483 330.486,261.271 329.319,262.723 328.348 C 264.175 327.377,265.562 326.457,265.806 326.302 C 266.050 326.147,266.325 325.959,266.417 325.884 C 266.508 325.809,266.806 325.604,267.079 325.429 C 267.352 325.253,267.652 325.045,267.746 324.966 C 267.840 324.887,268.667 324.296,269.583 323.653 C 270.500 323.011,271.531 322.282,271.875 322.034 C 273.789 320.653,280.737 315.403,281.039 315.110 C 281.155 314.997,281.549 314.682,281.913 314.411 C 282.278 314.139,282.728 313.792,282.913 313.639 C 283.099 313.487,283.962 312.790,284.833 312.092 C 285.704 311.393,286.529 310.730,286.667 310.619 C 286.804 310.507,287.292 310.116,287.750 309.750 C 288.208 309.383,288.621 309.045,288.667 308.999 C 288.712 308.953,289.237 308.503,289.833 307.999 C 290.429 307.495,290.999 307.008,291.100 306.917 C 291.200 306.825,291.725 306.375,292.266 305.917 C 293.207 305.120,293.855 304.539,296.077 302.500 C 297.714 300.998,303.667 295.011,304.834 293.693 C 305.429 293.020,306.067 292.305,306.250 292.104 C 307.967 290.217,310.375 287.242,311.864 285.167 C 312.161 284.754,312.537 284.271,312.701 284.094 C 312.866 283.916,313.000 283.715,313.000 283.647 C 313.000 283.579,313.098 283.425,313.217 283.304 C 313.467 283.050,315.248 280.500,315.350 280.250 C 315.387 280.158,315.848 279.428,316.375 278.627 C 316.902 277.825,317.333 277.094,317.333 277.002 C 317.333 276.909,317.408 276.833,317.500 276.833 C 317.592 276.833,317.667 276.771,317.667 276.694 C 317.667 276.618,318.417 275.304,319.333 273.775 C 320.250 272.246,321.000 270.957,321.000 270.911 C 321.000 270.864,321.175 270.547,321.389 270.205 C 321.602 269.863,322.004 269.171,322.280 268.667 C 322.557 268.162,323.220 266.963,323.754 266.001 C 326.812 260.496,333.107 247.814,335.585 242.167 C 336.007 241.204,336.469 240.117,336.611 239.750 C 336.753 239.383,336.967 238.858,337.086 238.583 C 337.642 237.295,337.877 236.718,338.001 236.333 C 338.076 236.104,338.335 235.392,338.577 234.750 C 339.048 233.501,340.826 228.188,341.143 227.083 C 341.785 224.843,342.648 221.493,343.248 218.917 C 344.043 215.509,343.921 216.129,344.900 210.500 C 345.209 208.725,345.435 206.957,345.667 204.500 C 345.943 201.576,346.170 199.850,346.426 198.750 C 346.554 198.200,346.888 196.662,347.168 195.333 C 347.449 194.004,347.780 192.504,347.903 192.000 C 349.191 186.753,348.817 180.819,346.996 177.576 C 346.605 176.880,346.589 176.487,346.915 175.552 C 347.631 173.496,347.935 168.999,347.490 167.032 C 346.915 164.492,346.533 163.207,346.313 163.071 C 346.233 163.021,346.167 162.870,346.167 162.735 C 346.167 162.512,345.208 160.427,344.833 159.833 C 342.734 156.517,342.167 154.809,342.167 151.807 C 342.167 150.142,341.916 148.754,340.899 144.792 C 340.605 143.643,340.293 143.270,338.833 142.320 C 338.329 141.992,337.707 141.588,337.451 141.421 L 336.986 141.119 337.084 142.268 C 337.138 142.900,337.286 144.279,337.413 145.333 C 337.540 146.387,337.728 148.112,337.830 149.167 C 337.932 150.221,338.084 151.533,338.167 152.083 C 338.250 152.633,338.394 153.683,338.487 154.417 C 338.580 155.150,338.767 156.612,338.902 157.667 C 340.562 170.619,340.566 187.993,338.913 200.917 C 338.784 201.925,338.596 203.425,338.496 204.250 C 338.396 205.075,338.247 206.162,338.165 206.667 C 338.084 207.171,337.933 208.183,337.830 208.917 C 337.727 209.650,337.543 210.775,337.420 211.417 C 337.297 212.058,337.115 213.033,337.017 213.583 C 336.321 217.455,335.148 222.562,334.240 225.667 C 334.092 226.171,333.907 226.808,333.828 227.083 C 333.578 227.961,333.357 228.733,333.186 229.333 C 332.999 229.990,332.072 232.776,331.745 233.667 C 331.627 233.987,331.383 234.662,331.204 235.167 C 330.457 237.260,328.073 243.194,327.396 244.644 C 326.995 245.502,326.667 246.238,326.667 246.278 C 326.667 246.589,321.621 256.675,321.180 257.245 C 321.108 257.340,320.805 257.867,320.507 258.417 C 319.335 260.583,316.740 264.947,315.268 267.229 C 314.754 268.026,314.333 268.716,314.333 268.763 C 314.333 268.809,314.255 268.938,314.159 269.049 C 314.064 269.159,313.388 270.150,312.657 271.250 C 311.926 272.350,311.211 273.400,311.068 273.583 C 310.925 273.767,310.236 274.742,309.538 275.750 C 308.840 276.758,308.222 277.621,308.164 277.667 C 308.107 277.712,307.753 278.162,307.377 278.667 C 306.264 280.159,304.783 282.077,304.674 282.167 C 304.618 282.212,304.275 282.625,303.911 283.083 C 303.547 283.542,303.212 283.954,303.167 284.000 C 303.121 284.046,302.710 284.533,302.254 285.083 C 301.797 285.633,301.382 286.121,301.332 286.167 C 301.281 286.212,300.573 287.000,299.759 287.917 C 297.997 289.901,297.494 290.429,294.311 293.630 C 291.617 296.339,290.761 297.154,288.667 299.000 C 287.887 299.687,287.137 300.363,287.000 300.503 C 286.862 300.644,286.300 301.132,285.750 301.588 C 285.200 302.044,284.675 302.496,284.583 302.592 C 284.492 302.688,284.042 303.062,283.583 303.422 C 283.125 303.782,282.667 304.153,282.566 304.247 C 282.465 304.340,281.796 304.867,281.081 305.417 C 280.365 305.967,279.548 306.609,279.265 306.844 C 278.982 307.079,278.487 307.450,278.167 307.669 C 277.846 307.888,277.546 308.114,277.500 308.171 C 277.293 308.430,270.602 313.028,268.333 314.471 C 267.737 314.850,267.172 315.225,267.076 315.305 C 266.980 315.384,266.830 315.480,266.742 315.516 C 266.468 315.632,263.254 317.554,263.167 317.655 C 263.121 317.707,262.858 317.860,262.583 317.994 C 262.308 318.128,261.896 318.363,261.667 318.515 C 260.198 319.491,252.955 323.290,249.083 325.115 C 244.662 327.200,239.962 329.216,236.917 330.335 C 234.369 331.272,231.612 332.235,230.167 332.693 C 229.296 332.970,228.058 333.365,227.417 333.573 C 226.775 333.780,225.912 334.045,225.500 334.161 C 225.088 334.277,224.563 334.430,224.333 334.500 C 224.104 334.570,223.579 334.721,223.167 334.834 C 222.754 334.948,222.079 335.136,221.667 335.253 C 221.254 335.370,220.542 335.553,220.083 335.660 C 219.625 335.767,218.987 335.920,218.667 336.000 C 218.346 336.080,217.746 336.221,217.333 336.313 C 216.921 336.405,216.096 336.592,215.500 336.728 C 214.094 337.050,212.153 337.427,209.833 337.829 C 209.237 337.932,208.188 338.119,207.500 338.244 C 204.665 338.759,195.233 339.830,190.667 340.155 C 184.274 340.610,182.615 340.669,176.250 340.669 C 167.349 340.669,162.266 340.351,155.000 339.340 C 150.577 338.725,150.654 338.738,146.417 337.913 C 143.353 337.317,142.611 337.157,141.000 336.746 C 140.496 336.618,139.108 336.277,137.917 335.990 C 136.725 335.702,135.112 335.284,134.333 335.062 C 133.554 334.839,132.617 334.575,132.250 334.476 C 131.883 334.376,131.396 334.235,131.167 334.163 C 130.938 334.091,129.625 333.683,128.250 333.256 C 126.875 332.830,125.563 332.403,125.333 332.307 C 125.104 332.211,124.262 331.918,123.461 331.655 C 122.660 331.393,121.648 331.033,121.211 330.856 C 120.774 330.679,119.967 330.369,119.417 330.167 C 118.867 329.966,118.229 329.723,118.000 329.627 C 117.771 329.531,117.358 329.359,117.083 329.244 C 116.808 329.129,116.396 328.960,116.167 328.867 C 112.091 327.226,105.006 323.885,102.000 322.188 C 101.496 321.903,100.671 321.463,100.167 321.210 C 99.662 320.957,99.212 320.704,99.167 320.648 C 99.121 320.592,98.558 320.261,97.917 319.913 C 97.275 319.564,96.355 319.029,95.872 318.723 C 95.389 318.417,94.968 318.167,94.938 318.167 C 94.907 318.167,93.885 317.567,92.667 316.833 C 91.448 316.100,90.387 315.500,90.309 315.500 C 90.231 315.500,90.167 315.425,90.167 315.333 C 90.167 315.242,90.092 315.167,90.001 315.167 C 89.795 315.167,81.779 310.051,80.917 309.370 C 80.825 309.298,80.188 308.867,79.500 308.412 C 78.813 307.958,78.212 307.543,78.167 307.491 C 78.121 307.439,77.558 307.028,76.917 306.577 C 75.749 305.757,73.426 304.041,72.339 303.198 C 71.408 302.475,67.091 298.955,67.000 298.844 C 66.954 298.788,66.017 297.947,64.917 296.974 C 61.945 294.345,59.042 291.416,55.916 287.894 C 54.381 286.165,52.855 284.450,52.525 284.083 C 52.195 283.717,51.552 282.967,51.096 282.417 C 50.640 281.867,50.225 281.379,50.172 281.333 C 50.119 281.287,49.703 280.801,49.246 280.253 C 48.790 279.704,48.279 279.104,48.111 278.919 C 47.332 278.061,44.325 274.252,41.926 271.083 C 41.301 270.258,40.618 269.358,40.407 269.083 C 39.351 267.704,36.765 264.201,35.547 262.500 C 34.792 261.446,34.111 260.506,34.032 260.412 C 33.954 260.318,33.747 260.018,33.571 259.746 C 33.396 259.473,33.196 259.175,33.128 259.083 C 32.904 258.784,31.500 256.624,31.500 256.578 C 31.500 256.554,31.202 256.057,30.838 255.475 C 30.251 254.536,27.457 249.032,26.790 247.500 C 26.650 247.179,26.334 246.467,26.087 245.917 C 25.605 244.843,25.322 244.197,24.900 243.208 C 24.754 242.865,24.484 242.246,24.302 241.833 C 24.119 241.421,23.909 240.933,23.835 240.750 C 23.761 240.567,23.555 240.079,23.378 239.667 C 23.200 239.254,22.847 238.392,22.592 237.750 C 22.336 237.108,22.068 236.433,21.994 236.250 C 21.669 235.436,20.663 232.828,20.324 231.917 C 20.119 231.367,19.855 230.692,19.738 230.417 C 19.288 229.364,16.905 222.275,16.181 219.833 C 15.977 219.146,15.733 218.358,15.638 218.083 C 15.447 217.526,15.339 217.147,14.858 215.333 C 14.675 214.646,14.401 213.633,14.248 213.083 C 13.944 211.990,13.657 210.840,13.150 208.667 C 12.968 207.887,12.712 206.800,12.581 206.250 C 12.337 205.221,11.799 202.518,11.486 200.750 C 11.389 200.200,11.209 199.225,11.086 198.583 C 10.389 194.945,9.485 186.819,9.166 181.333 C 8.947 177.563,8.950 163.200,9.170 159.750 C 9.326 157.296,9.589 154.363,10.011 150.333 C 10.295 147.629,10.756 144.307,11.086 142.583 C 11.209 141.942,11.389 140.967,11.486 140.417 C 11.866 138.270,12.349 135.875,12.578 135.000 C 12.710 134.496,12.976 133.408,13.167 132.583 C 13.567 130.865,13.777 130.060,14.103 129.000 C 14.304 128.349,14.889 126.333,15.338 124.750 C 15.485 124.228,16.513 121.306,17.154 119.583 C 17.359 119.033,17.587 118.396,17.662 118.167 C 17.882 117.492,19.692 113.098,19.825 112.917 C 19.892 112.825,20.064 112.450,20.206 112.083 C 20.439 111.481,20.796 110.690,22.124 107.833 C 22.755 106.477,26.027 99.918,26.698 98.667 C 27.781 96.645,28.548 95.251,28.669 95.083 C 28.735 94.992,29.034 94.467,29.334 93.917 C 29.775 93.105,31.858 89.599,33.573 86.780 C 34.867 84.652,40.042 76.906,40.329 76.667 C 40.384 76.621,40.832 76.021,41.325 75.333 C 41.818 74.646,42.266 74.046,42.320 74.000 C 42.374 73.954,42.640 73.617,42.912 73.250 C 43.183 72.883,43.482 72.501,43.577 72.401 C 43.672 72.301,43.938 71.968,44.167 71.661 C 44.544 71.155,45.457 70.042,45.666 69.833 C 45.712 69.787,46.198 69.225,46.747 68.583 C 50.512 64.175,56.330 58.360,62.004 53.333 C 62.780 52.646,63.498 52.008,63.599 51.917 C 63.700 51.825,64.223 51.375,64.760 50.917 C 65.298 50.458,65.866 49.958,66.021 49.806 C 66.177 49.653,67.117 48.877,68.111 48.082 C 69.104 47.286,70.067 46.513,70.250 46.364 C 70.644 46.044,75.374 42.899,76.188 42.417 C 76.497 42.233,76.938 41.971,77.168 41.833 C 77.398 41.696,78.373 41.140,79.335 40.598 C 80.296 40.057,81.441 39.400,81.878 39.140 C 82.314 38.880,82.701 38.667,82.738 38.667 C 82.774 38.667,83.316 38.378,83.943 38.025 C 85.512 37.141,86.561 36.562,87.833 35.876 C 88.429 35.555,89.217 35.123,89.583 34.915 C 90.292 34.514,90.769 34.249,92.500 33.293 C 93.096 32.963,93.996 32.463,94.500 32.181 C 95.528 31.605,102.207 28.282,103.750 27.578 C 105.721 26.679,108.104 25.639,109.290 25.159 C 109.954 24.891,110.629 24.601,110.790 24.515 C 110.951 24.429,111.721 24.122,112.500 23.832 C 113.279 23.542,114.104 23.227,114.333 23.133 C 115.602 22.608,120.173 21.051,123.250 20.095 C 124.350 19.753,125.438 19.413,125.667 19.339 C 125.896 19.266,126.421 19.113,126.833 19.000 C 127.246 18.887,127.808 18.720,128.083 18.629 C 128.358 18.538,128.846 18.403,129.167 18.330 C 129.785 18.188,131.301 17.811,134.083 17.106 C 134.633 16.967,135.421 16.779,135.833 16.688 C 136.246 16.598,136.921 16.448,137.333 16.356 C 137.746 16.264,138.571 16.101,139.167 15.994 C 139.762 15.886,140.662 15.700,141.167 15.581 C 141.671 15.461,142.608 15.278,143.250 15.175 C 143.892 15.072,144.829 14.919,145.333 14.836 C 145.837 14.752,146.850 14.601,147.583 14.499 C 148.317 14.398,149.554 14.212,150.333 14.086 C 151.112 13.960,152.500 13.774,153.417 13.674 C 154.333 13.574,155.721 13.422,156.500 13.337 C 158.248 13.146,161.150 12.907,165.083 12.629 C 168.936 12.356,178.122 12.356,181.667 12.628 C 185.917 12.953,188.309 13.166,189.583 13.332 C 190.225 13.415,191.425 13.569,192.250 13.674 C 193.075 13.779,194.275 13.965,194.917 14.087 C 195.558 14.209,196.533 14.389,197.083 14.486 C 199.243 14.868,201.627 15.349,202.500 15.579 C 203.004 15.712,204.392 16.060,205.583 16.353 C 206.775 16.645,208.275 17.051,208.917 17.253 C 209.558 17.456,210.721 17.792,211.500 18.000 C 212.279 18.208,213.442 18.546,214.083 18.750 C 214.725 18.955,215.588 19.219,216.000 19.337 C 219.620 20.375,231.667 24.454,235.417 25.911 C 237.811 26.842,240.455 27.889,240.917 28.090 C 241.192 28.210,242.279 28.659,243.333 29.089 C 244.387 29.519,245.737 30.091,246.333 30.361 C 246.929 30.630,247.567 30.916,247.750 30.995 C 248.682 31.397,252.293 33.142,253.833 33.935 C 254.796 34.431,255.883 34.986,256.250 35.170 C 256.617 35.354,257.192 35.672,257.529 35.877 C 257.865 36.082,258.840 36.654,259.695 37.149 C 260.975 37.889,263.917 39.785,264.583 40.300 C 264.675 40.371,265.275 40.798,265.917 41.250 C 267.079 42.068,267.810 42.642,269.772 44.277 C 271.373 45.613,271.738 45.948,273.848 48.019 C 276.085 50.216,275.958 50.159,278.945 50.312 L 280.974 50.417 280.897 49.250 C 280.671 45.858,280.292 44.531,279.310 43.705 C 279.028 43.467,278.711 43.191,278.607 43.091 C 277.514 42.049,271.084 37.339,269.750 36.604 C 269.475 36.453,268.762 36.020,268.167 35.642 C 267.571 35.264,266.633 34.712,266.083 34.416 C 265.533 34.120,264.783 33.708,264.417 33.500 C 264.050 33.292,263.300 32.883,262.750 32.589 C 261.214 31.769,259.488 30.832,258.750 30.418 C 257.948 29.968,255.495 28.655,254.000 27.875 C 253.404 27.564,252.204 26.934,251.333 26.474 C 247.792 24.603,239.824 20.667,239.578 20.667 C 239.539 20.667,238.924 20.400,238.212 20.074 C 236.808 19.432,236.266 19.194,235.750 18.991 C 235.567 18.919,234.990 18.667,234.469 18.430 C 233.947 18.194,233.455 18.000,233.375 18.000 C 233.295 18.000,232.919 17.850,232.539 17.667 C 232.160 17.483,231.780 17.333,231.696 17.333 C 231.611 17.333,231.204 17.184,230.790 17.001 C 229.034 16.224,221.740 13.755,218.917 12.981 C 218.550 12.881,218.070 12.728,217.849 12.641 C 217.629 12.555,216.129 12.142,214.516 11.723 C 211.618 10.972,211.216 10.874,209.583 10.519 C 209.125 10.420,207.850 10.143,206.750 9.903 C 205.650 9.664,204.412 9.407,204.000 9.332 C 202.033 8.974,199.767 8.599,198.500 8.422 C 198.088 8.365,197.112 8.214,196.333 8.087 C 194.345 7.764,191.946 7.510,186.000 6.994 C 184.854 6.894,178.417 6.749,171.695 6.671 C 159.060 6.525,159.118 6.528,159.526 6.043 C 159.662 5.882,160.095 5.206,160.489 4.542 C 161.296 3.180,161.419 3.133,162.635 3.719 C 164.052 4.403,164.783 4.487,170.833 4.663 C 181.978 4.987,190.434 4.903,191.058 4.461 C 192.627 3.351,192.816 2.923,191.958 2.423 C 191.660 2.250,191.379 2.056,191.333 1.992 C 191.154 1.743,188.886 0.374,188.350 0.192 C 187.670 -0.038,164.677 -0.035,161.750 0.196 M17.985 240.375 C 20.753 245.907,21.248 246.867,22.523 249.167 C 22.853 249.762,23.309 250.588,23.536 251.000 C 23.763 251.412,24.354 252.448,24.849 253.301 C 25.345 254.153,25.900 255.128,26.083 255.467 C 26.267 255.806,26.473 256.108,26.542 256.139 C 26.610 256.169,26.667 256.254,26.667 256.326 C 26.667 256.502,30.378 262.599,31.337 264.000 C 31.432 264.137,31.898 264.850,32.373 265.583 C 32.848 266.317,33.296 266.942,33.369 266.972 C 33.441 267.003,33.500 267.101,33.500 267.190 C 33.500 267.367,37.039 272.515,37.428 272.904 C 37.559 273.035,37.667 273.188,37.667 273.243 C 37.667 273.382,39.553 275.903,39.708 275.972 C 39.777 276.003,39.833 276.128,39.833 276.250 C 39.833 276.372,39.893 276.497,39.965 276.528 C 40.038 276.558,40.318 276.883,40.589 277.250 C 41.261 278.161,43.385 280.897,43.499 281.000 C 43.550 281.046,43.847 281.421,44.158 281.833 C 44.470 282.246,44.805 282.658,44.904 282.750 C 45.003 282.842,45.284 283.179,45.530 283.500 C 45.775 283.821,46.150 284.283,46.363 284.528 C 46.576 284.772,46.892 285.147,47.065 285.361 C 47.239 285.575,47.839 286.275,48.399 286.917 C 48.959 287.558,49.612 288.308,49.851 288.583 C 54.223 293.612,62.631 301.963,66.312 304.931 C 66.529 305.107,66.867 305.406,67.062 305.596 C 67.427 305.952,70.606 308.585,72.083 309.756 C 72.542 310.120,72.954 310.459,73.000 310.511 C 73.046 310.563,73.421 310.846,73.833 311.140 C 74.716 311.768,75.799 312.580,76.205 312.918 C 77.374 313.890,84.813 318.927,87.167 320.341 C 87.671 320.644,88.835 321.347,89.754 321.904 C 90.673 322.461,91.648 323.026,91.921 323.159 C 92.194 323.293,92.529 323.490,92.667 323.598 C 93.460 324.217,102.949 328.982,106.000 330.294 C 106.321 330.431,106.883 330.677,107.250 330.839 C 108.624 331.447,109.122 331.658,110.583 332.255 C 111.408 332.591,112.233 332.929,112.417 333.005 C 113.877 333.608,117.982 335.091,120.500 335.924 C 124.003 337.083,124.783 337.330,126.583 337.849 C 128.614 338.434,128.623 338.437,131.333 339.138 C 132.387 339.411,133.700 339.758,134.250 339.908 C 135.258 340.184,135.493 340.237,137.917 340.735 C 138.650 340.885,139.700 341.113,140.250 341.240 C 141.921 341.626,143.167 341.863,145.958 342.325 C 146.485 342.413,147.554 342.596,148.333 342.733 C 150.533 343.120,153.319 343.511,156.083 343.821 C 156.908 343.913,158.558 344.101,159.750 344.238 C 161.949 344.490,164.216 344.682,168.783 345.001 C 176.313 345.528,196.582 345.281,202.478 344.591 C 203.586 344.461,202.730 344.740,201.250 344.991 C 200.608 345.100,199.746 345.257,199.333 345.342 C 197.544 345.706,195.992 345.984,194.750 346.162 C 194.017 346.267,192.967 346.419,192.417 346.499 C 191.441 346.641,190.793 346.721,186.500 347.237 C 176.562 348.430,162.994 348.429,153.250 347.235 C 146.731 346.436,144.940 346.154,139.000 344.986 C 137.387 344.669,133.548 343.789,132.583 343.514 C 132.308 343.436,131.708 343.282,131.250 343.172 C 130.792 343.062,129.779 342.789,129.000 342.564 C 128.221 342.340,127.358 342.094,127.083 342.017 C 125.708 341.635,124.832 341.361,121.917 340.400 C 118.374 339.232,116.493 338.577,115.750 338.252 C 115.475 338.132,114.899 337.916,114.471 337.773 C 113.568 337.471,109.473 335.809,108.250 335.248 C 107.792 335.038,106.817 334.604,106.083 334.284 C 102.731 332.821,96.796 329.881,93.083 327.844 C 90.479 326.415,90.245 326.282,89.808 325.976 C 89.564 325.806,89.331 325.667,89.290 325.667 C 89.249 325.667,88.210 325.058,86.983 324.315 C 85.755 323.571,84.501 322.820,84.198 322.645 C 83.582 322.291,82.837 321.820,82.583 321.624 C 82.492 321.554,81.779 321.085,81.000 320.583 C 80.221 320.081,79.508 319.613,79.417 319.544 C 79.325 319.474,78.688 319.045,78.000 318.590 C 77.313 318.136,76.651 317.667,76.530 317.548 C 76.409 317.430,76.254 317.333,76.186 317.333 C 76.118 317.333,75.917 317.198,75.740 317.033 C 75.562 316.867,74.779 316.289,74.000 315.748 C 73.221 315.206,72.546 314.719,72.500 314.664 C 72.454 314.610,72.117 314.345,71.750 314.075 C 71.383 313.806,71.046 313.543,71.000 313.492 C 70.954 313.441,70.617 313.178,70.250 312.909 C 69.883 312.639,69.546 312.381,69.500 312.334 C 69.454 312.288,69.042 311.953,68.583 311.589 C 68.125 311.225,67.712 310.887,67.667 310.838 C 67.621 310.789,67.321 310.548,67.000 310.303 C 66.679 310.058,66.217 309.683,65.972 309.470 C 65.728 309.257,65.390 308.968,65.222 308.826 C 64.258 308.016,62.367 306.374,62.066 306.086 C 61.873 305.901,60.901 305.000,59.906 304.083 C 57.533 301.898,53.173 297.512,51.290 295.417 C 50.467 294.500,49.671 293.636,49.521 293.497 C 49.372 293.358,48.876 292.796,48.419 292.247 C 47.961 291.699,47.511 291.167,47.419 291.065 C 47.032 290.640,46.375 289.857,45.754 289.079 C 45.389 288.623,45.010 288.175,44.911 288.083 C 44.813 287.992,44.398 287.483,43.991 286.953 C 43.583 286.422,42.969 285.635,42.626 285.203 C 42.283 284.770,41.763 284.079,41.470 283.667 C 41.178 283.254,40.890 282.879,40.830 282.833 C 40.770 282.787,40.318 282.188,39.825 281.500 C 39.332 280.813,38.889 280.212,38.840 280.167 C 38.704 280.040,36.867 277.382,35.499 275.333 C 35.178 274.852,33.494 272.242,32.971 271.417 C 32.682 270.958,32.204 270.208,31.910 269.750 C 31.362 268.897,29.237 265.280,28.580 264.083 C 28.379 263.717,28.043 263.117,27.835 262.750 C 27.171 261.584,24.238 256.072,24.021 255.583 C 23.939 255.400,23.349 254.162,22.710 252.833 C 21.047 249.376,19.167 245.262,19.167 245.080 C 19.167 245.034,19.011 244.641,18.821 244.207 C 18.389 243.218,18.096 242.536,17.874 242.000 C 17.779 241.771,17.590 241.321,17.454 241.000 C 17.040 240.022,15.000 234.799,15.000 234.718 C 15.000 234.461,15.503 235.414,17.985 240.375 " stroke="none" fill="#241c23" fill-rule="evenodd"></path><path id="path2" d="" stroke="none" fill="#44e0c4" fill-rule="evenodd"></path><path id="path3" d="" stroke="none" fill="#44e0c4" fill-rule="evenodd"></path><path id="path4" d="" stroke="none" fill="#44e0c4" fill-rule="evenodd"></path></g></svg>